<?xml version="1.0" encoding="iso-8859-1"?>
<!-- Generator: Adobe Illustrator 19.0.0, SVG Export Plug-In . SVG Version: 6.00 Build 0)  -->
<svg version="1.1" id="Layer_1" xmlns="http://www.w3.org/2000/svg" xmlns:xlink="http://www.w3.org/1999/xlink" x="0px" y="0px"
	 viewBox="0 0 512 512" style="enable-background:new 0 0 512 512;" xml:space="preserve">
<circle style="fill:#FF3C62;" cx="255.996" cy="255.996" r="255.996"/>
<path style="fill:#E7001F;" d="M512,255.999c0-27.826-4.456-54.608-12.666-79.689l-89.381-89.381H102.047v338.142l74.263,74.263
	c25.082,8.21,51.864,12.666,79.69,12.666C397.385,512,512,397.385,512,255.999z"/>
<rect x="102.043" y="86.924" style="fill:#FFFFFF;" width="307.906" height="338.145"/>
<rect x="255.996" y="86.924" style="fill:#E1E1E3;" width="153.953" height="338.145"/>
<rect x="124.696" y="112.503" style="fill:#394CE2;" width="262.6" height="224.305"/>
<rect x="255.996" y="112.503" style="fill:#1B2DDD;" width="131.3" height="224.305"/>
<path style="fill:#FFA91F;" d="M337.292,247.5c0-44.897-36.396-81.293-81.293-81.293s-81.293,36.396-81.293,81.293
	c0,2.871,0.154,5.706,0.444,8.5h161.699C337.14,253.205,337.292,250.371,337.292,247.5z"/>
<path style="fill:#FF8800;" d="M337.292,247.5c0-44.897-36.396-81.293-81.293-81.293c-0.001,0-0.002,0-0.003,0v89.793h80.852
	C337.14,253.205,337.292,250.371,337.292,247.5z"/>
<rect x="124.696" y="249.727" style="fill:#00CDB3;" width="262.6" height="87.07"/>
<rect x="255.996" y="249.727" style="fill:#00B5A3;" width="131.3" height="87.07"/>
<rect x="124.696" y="299.881" style="fill:#00AD95;" width="262.6" height="36.916"/>
<rect x="255.996" y="299.881" style="fill:#008878;" width="131.3" height="36.916"/>
<g>
</g>
<g>
</g>
<g>
</g>
<g>
</g>
<g>
</g>
<g>
</g>
<g>
</g>
<g>
</g>
<g>
</g>
<g>
</g>
<g>
</g>
<g>
</g>
<g>
</g>
<g>
</g>
<g>
</g>
</svg>
